# xmcd
#
# Track frame offsets:
#	150
#	18305
#	40360
#	57990
#	77084
#	94639
#	111984
#	131790
#	146794
#	166371
#	185465
#	202345
#	220723
#
# Disc length: 3223 seconds
#
# Revision: 0
# Processed by: cddbd v1.5.2PL0 Copyright (c) Steve Scherf et al.
# Submitted via: audiograbber 1.83.01
#
DISCID=c10c950d
DTITLE=Taylar Swift - Fearless
DYEAR=2008
DGENRE=
TTITLE0=Fearless
TTITLE1=Fifteen
TTITLE2=Love Story
TTITLE3=Hey Stephen
TTITLE4=White Horse
TTITLE5=You Belong With Me
TTITLE6=Breathe
TTITLE7=Tell Me Why
TTITLE8=You're Not Sorry
TTITLE9=The Way I Loved You
TTITLE10=Forever and Always
TTITLE11=The Best Day
TTITLE12=Change
EXTD=
EXTT0=
EXTT1=
EXTT2=
EXTT3=
EXTT4=
EXTT5=
EXTT6=
EXTT7=
EXTT8=
EXTT9=
EXTT10=
EXTT11=
EXTT12=
PLAYORDER=
